#!OML:ASF I:\golf\golf\golf 2\Subject 1\2002-09-07\Subject1.ASF
:FULLY-SPECIFIED
:DEGREES
317
root -5.89863 18.0894 -0.659189 -178.669 47.3308 -185.104
lowerback -8.05698 -1.25791 5.56559
upperback 1.5578 -1.67349 14.1397
thorax 6.52097 -0.373863 12.2441
lowerneck -5.58606 -12.6017 -4.1545
upperneck 30.8802 -12.3025 -10.0621
head 10.4203 -6.33788 -3.98974
rclavicle 8.74653e-014 1.33583e-013
rhumerus -0.117409 10.8884 -98.0873
rradius 21.1763
rwrist -52.1431
rhand -15.4747 -15.3406
rfingers 7.12502
rthumb 10.7069 -45.0478
lclavicle 8.74653e-014 1.33583e-013
lhumerus 5.00522 -41.4951 102.028
lradius 14.2106
lwrist 18.1378
lhand 7.19726 67.3531
lfingers 7.12502
lthumb -147.537 85.535
rfemur -6.36225 -2.88556 2.19787
rtibia 36.108
rfoot -3.15594 -26.0225
rtoes 11.7275
lfemur -13.9827 -0.00445629 -22.3948
ltibia 8.9738
lfoot -1.80029 -22.501
ltoes -8.44135
318
root -5.87697 18.0806 -0.694216 -179.08 46.7228 -184.895
lowerback -7.92494 -0.368092 5.85161
upperback 1.37043 -0.368149 14.3267
thorax 6.01014 0.330673 12.4578
lowerneck -4.91909 -13.5585 -4.74547
upperneck 30.8663 -13.633 -9.66626
head 10.3313 -6.9162 -3.83529
rclavicle 2.34566e-014 -1.94014e-013
rhumerus 2.22519 11.7127 -99.2242
rradius 18.7801
rwrist -46.75
rhand -11.0006 -15.2483
rfingers 7.12502
rthumb 15.0199 -44.6835
lclavicle 2.34566e-014 -1.94014e-013
lhumerus 4.62831 -37.7182 102.095
lradius 14.861
lwrist 23.458
lhand 4.85165 67.0082
lfingers 7.12502
lthumb -149.772 85.4462
rfemur -5.33022 -2.36232 2.30393
rtibia 35.9472
rfoot -2.51006 -26.258
rtoes 11.2929
lfemur -13.344 0.0908104 -22.4459
ltibia 9.14145
lfoot -1.76722 -22.9385
ltoes -7.1826
319
root -5.84346 18.0644 -0.742638 -180.046 45.9215 -185.298
lowerback -7.92218 0.549017 5.88641
upperback 1.2489 0.928125 14.2676
thorax 5.65106 1.0031 12.5166
lowerneck -4.38748 -14.525 -5.11641
upperneck 30.964 -15.0022 -9.25765
head 10.3019 -7.48686 -3.72949
rclavicle -1.42131e-014 -1.55847e-013
rhumerus 4.71831 13.2568 -100.144
rradius 17.1514
rwrist -41.2124
rhand -7.79369 -14.6136
rfingers 7.12502
rthumb 18.1073 -43.7907
lclavicle -1.42131e-014 -1.55847e-013
lhumerus 4.59672 -34.8659 101.756
lradius 15.9974
lwrist 29.8746
lhand 1.93226 66.324
lfingers 7.12502
lthumb -152.56 85.6545
rfemur -3.95091 -2.26504 1.8494
rtibia 35.7089
rfoot -2.13832 -26.2538
rtoes 11.0605
lfemur -12.6555 -0.0205359 -22.9902
ltibia 9.55734
lfoot -1.72841 -23.4007
ltoes -5.08494
320
root -5.82217 18.0476 -0.798173 -180.957 44.6917 -185.659
lowerback -7.80297 1.34505 6.05884
upperback 1.13571 2.062 14.1644
thorax 5.27074 1.59924 12.3998
lowerneck -4.29991 -15.4615 -5.28301
upperneck 31.1076 -16.3453 -8.90969
head 10.3567 -8.0436 -3.71319
rclavicle 1.59028e-015 -1.145e-013
rhumerus 7.3047 17.1331 -100.259
rradius 16.6966
rwrist -36.6629
rhand -5.72213 -14.2669
rfingers 7.12502
rthumb 20.0995 -43.2472
lclavicle 1.59028e-015 -1.145e-013
lhumerus 5.03119 -32.7215 101.034
lradius 17.6605
lwrist 37.012
lhand -1.30335 65.359
lfingers 7.12502
lthumb -155.659 86.1668
rfemur -2.3939 -2.53345 1.3741
rtibia 35.4055
rfoot -2.51526 -26.3173
rtoes 12.471
lfemur -12.1648 -0.55573 -23.5656
ltibia 10.2492
lfoot -1.81364 -23.8939
ltoes -3.43684
321
root -5.81488 18.036 -0.85113 -181.21 43.4815 -185.388
lowerback -7.62272 2.12287 6.67551
upperback 0.983388 3.18675 14.2067
thorax 4.83681 2.21996 12.1769
lowerneck -4.30732 -16.3145 -5.39208
upperneck 31.0704 -17.6047 -8.5727
head 10.3631 -8.56849 -3.70031
rclavicle -1.55052e-014 -1.94014e-013
rhumerus 10.0357 22.7344 -99.2798
rradius 16.9919
rwrist -32.2122
rhand -3.07212 -14.3872
rfingers 7.12502
rthumb 22.6448 -43.0787
lclavicle -1.55052e-014 -1.94014e-013
lhumerus 5.77897 -30.7587 100.195
lradius 19.6857
lwrist 43.3407
lhand -5.16488 65.1309
lfingers 7.12502
lthumb -159.365 85.946
rfemur -1.14378 -2.91544 1.40863
rtibia 35.0741
rfoot -2.42414 -26.3906
rtoes 12.5983
lfemur -12.0205 -1.23507 -23.6278
ltibia 11.0688
lfoot -1.9764 -24.2689
ltoes -2.12028
322
root -5.80856 18.0273 -0.900032 -181.015 42.5705 -184.847
lowerback -7.53984 2.94814 7.3712
upperback 0.802125 4.38685 14.3556
thorax 4.43239 2.88642 12.0465
lowerneck -4.26209 -17.0477 -5.4316
upperneck 30.8258 -18.7222 -8.26606
head 10.2789 -9.03425 -3.67487
rclavicle -4.73108e-014 1.59028e-014
rhumerus 13.0867 28.1807 -97.5732
rradius 18.0575
rwrist -26.9731
rhand 0.460668 -13.8352
rfingers 7.12502
rthumb 26.0315 -42.0718
lclavicle -4.73108e-014 1.59028e-014
lhumerus 6.76668 -28.3824 99.4645
lradius 21.6376
lwrist 47.3343
lhand -11.4355 65.8296
lfingers 7.12502
lthumb -165.399 84.7043
rfemur -0.311831 -3.2327 1.68462
rtibia 34.7285
rfoot -1.94607 -26.4093
rtoes 11.7925
lfemur -12.2559 -1.75041 -23.4208
ltibia 12.0458
lfoot -2.18765 -24.5117
ltoes -0.474482
323
root -5.80519 18.0207 -0.94595 -180.547 41.6358 -184.237
lowerback -7.38503 3.67406 8.03112
upperback 0.457561 5.51003 14.5127
thorax 3.83511 3.51835 11.9057
lowerneck -4.20752 -17.6373 -5.2707
upperneck 30.4718 -19.6384 -8.12038
head 10.1154 -9.41416 -3.6951
rclavicle -1.90833e-014 1.74931e-013
rhumerus 16.0781 32.4697 -95.786
rradius 19.7701
rwrist -20.3525
rhand 4.07396 -12.7385
rfingers 7.12502
rthumb 29.4863 -40.4175
lclavicle -1.90833e-014 1.74931e-013
lhumerus 7.53145 -26.2326 98.693
lradius 24.1773
lwrist 50.966
lhand -9.92672 61.6475
lfingers 7.12502
lthumb -163.946 88.9976
rfemur 0.307192 -3.51894 2.08703
rtibia 34.3491
rfoot -2.2678 -26.625
rtoes 13.4407
lfemur -12.8425 -2.15264 -23.1419
ltibia 13.1815
lfoot -2.61568 -24.9322
ltoes 0.344746
324
root -5.80571 18.0125 -1.00837 -180.128 40.5212 -183.753
lowerback -7.07414 4.27791 8.71934
upperback -0.0981508 6.52757 14.5558
thorax 2.96842 4.09189 11.5476
lowerneck -4.09695 -18.1422 -4.87182
upperneck 30.2028 -20.4182 -8.1247
head 9.92663 -9.71821 -3.77113
rclavicle -5.32743e-014 8.26944e-014
rhumerus 18.7948 36.6857 -93.9205
rradius 21.7506
rwrist -16.7711
rhand 3.69461 -9.52136
rfingers 7.12502
rthumb 29.1241 -37.2637
lclavicle -5.32743e-014 8.26944e-014
lhumerus 7.82915 -25.1762 97.6177
lradius 27.7359
lwrist 56.4702
lhand -13.6231 59.7317
lfingers 7.12502
lthumb -167.508 -90.6617
rfemur 0.976399 -4.06771 2.30725
rtibia 33.9236
rfoot -2.49313 -26.7595
rtoes 14.9461
lfemur -13.4589 -2.84973 -23.0014
ltibia 14.3254
lfoot -3.22949 -25.1677
ltoes -0.052555
325
root -5.8029 18.0042 -1.07889 -179.82 39.4608 -183.16
lowerback -6.5724 4.88812 9.57056
upperback -0.614024 7.58332 14.5629
thorax 2.07648 4.67464 11.0276
lowerneck -4.09319 -18.6225 -4.42367
upperneck 30.015 -21.1863 -8.02627
head 9.79232 -9.99894 -3.83267
rclavicle -5.32743e-014 -3.02153e-013
rhumerus 21.9152 39.8265 -91.9335
rradius 23.6652
rwrist -13.6605
rhand 3.10426 -7.55231
rfingers 7.12502
rthumb 28.5602 -35.3908
lclavicle -5.32743e-014 -3.02153e-013
lhumerus 8.39433 -22.7095 96.8234
lradius 30.2411
lwrist 56.4527
lhand -13.0646 57.2599
lfingers 7.12502
lthumb -166.969 -93.1672
rfemur 1.8503 -4.64776 2.5721
rtibia 33.427
rfoot -1.93445 -26.7722
rtoes 14.506
lfemur -13.8327 -3.49556 -22.7693
ltibia 15.4427
lfoot -3.36016 -25.1942
ltoes 0.911722
326
root -5.79343 17.9994 -1.13073 -179.421 38.5279 -182.254
lowerback -5.89969 5.46486 10.4563
upperback -1.00416 8.6451 14.6728
thorax 1.23469 5.25785 10.5885
lowerneck -4.17622 -19.0275 -3.93318
upperneck 29.6218 -21.895 -7.87531
head 9.60063 -10.2638 -3.86956
rclavicle -2.00375e-013 1.36764e-013
rhumerus 25.7511 42.5767 -89.0862
rradius 25.9766
rwrist -12.2148
rhand 3.25052 -6.40321
rfingers 7.12502
rthumb 28.6999 -34.2182
lclavicle -2.00375e-013 1.36764e-013
lhumerus 9.07995 -21.1142 95.8329
lradius 33.2801
lwrist 56.8729
lhand -15.5303 53.8892
lfingers 7.12502
lthumb -169.347 -96.4009
rfemur 2.79218 -4.93332 3.26995
rtibia 32.8498
rfoot -1.52596 -27.0256
rtoes 14.7229
lfemur -14.1001 -3.58586 -22.197
ltibia 16.5606
lfoot -3.66139 -25.6722
ltoes 1.55099
327
root -5.78869 18.0032 -1.17906 -178.647 37.5975 -181.009
lowerback -5.36232 5.95438 11.5666
upperback -1.41344 9.61207 14.8523
thorax 0.492367 5.79663 10.1167
lowerneck -4.04311 -19.3384 -3.44422
upperneck 28.8953 -22.5183 -7.63679
head 9.26623 -10.5038 -3.82234
rclavicle 5.24792e-014 -1.43125e-013
rhumerus 29.6413 44.4826 -86.3309
rradius 28.4294
rwrist -11.3141
rhand 3.90131 -5.26605
rfingers 7.12502
rthumb 29.3215 -32.9741
lclavicle 5.24792e-014 -1.43125e-013
lhumerus 9.89096 -20.0636 94.4803
lradius 36.5631
lwrist 57.2035
lhand -18.1968 50.5598
lfingers 7.12502
lthumb -171.92 -99.6147
rfemur 3.49764 -5.17418 4.37005
rtibia 32.2167
rfoot -1.19886 -27.4933
rtoes 15.35
lfemur -14.5804 -3.66441 -21.267
ltibia 17.644
lfoot -4.52201 -26.1953
ltoes 0.291129
328
root -5.79041 18.0106 -1.23948 -177.742 36.6031 -179.853
lowerback -5.21338 6.41756 12.746
upperback -1.80517 10.4701 14.9743
thorax 0.0360654 6.27179 9.61193
lowerneck -3.76311 -19.5646 -3.13448
upperneck 27.9261 -23.0801 -7.0821
head 8.89491 -10.7174 -3.62756
rclavicle -9.54166e-015 -2.51264e-013
rhumerus 33.6401 45.8055 -83.7422
rradius 30.4945
rwrist -9.42929
rhand 4.20485 -3.64219
rfingers 7.12502
rthumb 29.6113 -31.2991
lclavicle -9.54166e-015 -2.51264e-013
lhumerus 10.9786 -19.1051 92.8561
lradius 39.7562
lwrist 57.4209
lhand -17.3597 46.2417
lfingers 7.12502
lthumb -171.112 -103.965
rfemur 3.98155 -5.5718 5.37072
rtibia 31.5968
rfoot -0.786688 -27.8915
rtoes 15.9917
lfemur -15.2635 -3.8885 -20.4095
ltibia 18.6191
lfoot -5.13323 -26.6146
ltoes 0.00911575
329
root -5.78825 18.0126 -1.30738 -177.053 35.643 -179.139
lowerback -5.35833 6.86215 13.237
upperback -2.09798 11.2749 15.1998
thorax -0.263201 6.73656 9.65216
lowerneck -3.80503 -19.7543 -2.9523
upperneck 27.0864 -23.5142 -6.74556
head 8.62139 -10.9094 -3.52232
rclavicle -6.20208e-014 -5.08889e-014
rhumerus 37.5896 46.8331 -81.0624
rradius 32.3178
rwrist -7.03525
rhand 3.80794 -2.15189
rfingers 7.12502
rthumb 29.2323 -29.8755
lclavicle -6.20208e-014 -5.08889e-014
lhumerus 12.2405 -17.5062 91.77
lradius 42.5774
lwrist 56.9951
lhand -23.8899 43.883
lfingers 7.12502
lthumb -177.416 -106.153
rfemur 4.39255 -5.99291 5.95673
rtibia 31.0444
rfoot -0.537711 -28.18
rtoes 16.8619
lfemur -15.8945 -3.97823 -19.9573
ltibia 19.4518
lfoot -5.81048 -27.1741
ltoes -0.235111
330
root -5.78046 18.0144 -1.37478 -176.367 34.7745 -178.469
lowerback -5.45838 7.24161 13.056
upperback -2.47002 12.1706 15.7189
thorax -0.886683 7.30163 10.3509
lowerneck -3.97225 -20.0168 -3.06258
upperneck 26.623 -23.8836 -6.8131
head 8.4883 -11.1112 -3.54072
rclavicle 7.31528e-014 -2.48083e-013
rhumerus 41.0849 47.7635 -78.4133
rradius 33.9669
rwrist -5.02497
rhand 3.39804 0.139788
rfingers 7.12502
rthumb 28.8408 -27.6512
lclavicle 7.31528e-014 -2.48083e-013
lhumerus 13.2662 -15.1403 91.7424
lradius 44.9776
lwrist 55.8924
lhand -31.8994 38.5552
lfingers 7.12502
lthumb -185.152 -111.527
rfemur 4.66599 -6.30044 6.57083
rtibia 30.5873
rfoot -0.241763 -28.5534
rtoes 17.1627
lfemur -16.4342 -4.05059 -19.4938
ltibia 20.1408
lfoot -6.57218 -27.6609
ltoes -1.1007
